<svg xmlns="http://www.w3.org/2000/svg" viewBox="0 0 400 300" width="400" height="300" role="img" fill="none" stroke-linecap="round" stroke-linejoin="round">
<title>dankbaarheid</title>
<rect x="0" y="0" width="400" height="300" rx="26" fill="#F8DCD0"/><defs><clipPath id="cp400300F8DCD0"><rect x="0" y="0" width="400" height="300" rx="26"/></clipPath></defs><g clip-path="url(#cp400300F8DCD0)"><circle cx="320" cy="240" r="110" fill="#FCEAE2"/></g><g transform="translate(118,120) scale(1.45)"><path d="M12,30 Q75,18 138,30 L138,96 Q75,84 12,96 Z" fill="#FFFDF9" stroke="#38332D" stroke-width="3.4"/><line x1="75" y1="22" x2="75" y2="90" stroke="#38332D" stroke-width="2.4"/><line x1="20" y1="44" x2="66" y2="42" stroke="#6E665B" stroke-width="2" opacity="0.45"/><line x1="84" y1="42" x2="130" y2="44" stroke="#6E665B" stroke-width="2" opacity="0.45"/><line x1="20" y1="56" x2="66" y2="54" stroke="#6E665B" stroke-width="2" opacity="0.45"/><line x1="84" y1="54" x2="130" y2="56" stroke="#6E665B" stroke-width="2" opacity="0.45"/><line x1="20" y1="68" x2="66" y2="66" stroke="#6E665B" stroke-width="2" opacity="0.45"/><line x1="84" y1="66" x2="130" y2="68" stroke="#6E665B" stroke-width="2" opacity="0.45"/><path d="M118,18 l0,40 -8,-8 -8,8 0,-40 z" fill="#E98B6F" stroke="#38332D" stroke-width="2.6"/></g><g transform="translate(248,150) scale(1.0)"><g transform="rotate(38 45 50)"><rect x="36" y="6" width="18" height="74" rx="4" fill="#F2B544" stroke="#38332D" stroke-width="3.4"/><path d="M36,80 L54,80 L45,96 Z" fill="#38332D"/><rect x="36" y="6" width="18" height="9" rx="3" fill="#D2694A" stroke="#38332D" stroke-width="2.4"/></g></g><path d="M322,91.12 C312.4,82.0 313.2,74.0 322,80.4 C330.8,74.0 331.6,82.0 322,91.12 Z" fill="#E98B6F"/><path d="M352,123.2 C346.0,117.5 346.5,112.5 352,116.5 C357.5,112.5 358.0,117.5 352,123.2 Z" fill="#F2B544"/><path d="M80,71 C81.62,78.38 81.62,78.38 89,80 C81.62,81.62 81.62,81.62 80,89 C78.38,81.62 78.38,81.62 71,80 C78.38,78.38 78.38,78.38 80,71 Z" fill="#F2B544"/><circle cx="96" cy="244" r="4.5" fill="#E98B6F"/><circle cx="300" cy="238" r="4" fill="#9FB291"/>
</svg>
