<svg xmlns="http://www.w3.org/2000/svg" viewBox="0 0 400 300" width="400" height="300" role="img" fill="none" stroke-linecap="round" stroke-linejoin="round">
<title>gewoontes</title>
<rect x="0" y="0" width="400" height="300" rx="26" fill="#E4EADD"/><defs><clipPath id="cp400300E4EADD"><rect x="0" y="0" width="400" height="300" rx="26"/></clipPath></defs><g clip-path="url(#cp400300E4EADD)"><circle cx="318" cy="72" r="90" fill="#9FB291"/></g><circle cx="330" cy="78" r="20" fill="#F2B544"/><line x1="356.0" y1="78.0" x2="367.0" y2="78.0" stroke="#F2B544" stroke-width="3.4"/><line x1="349.9" y1="94.7" x2="358.3" y2="101.8" stroke="#F2B544" stroke-width="3.4"/><line x1="334.5" y1="103.6" x2="336.4" y2="114.4" stroke="#F2B544" stroke-width="3.4"/><line x1="317.0" y1="100.5" x2="311.5" y2="110.0" stroke="#F2B544" stroke-width="3.4"/><line x1="305.6" y1="86.9" x2="295.2" y2="90.7" stroke="#F2B544" stroke-width="3.4"/><line x1="305.6" y1="69.1" x2="295.2" y2="65.3" stroke="#F2B544" stroke-width="3.4"/><line x1="317.0" y1="55.5" x2="311.5" y2="46.0" stroke="#F2B544" stroke-width="3.4"/><line x1="334.5" y1="52.4" x2="336.4" y2="41.6" stroke="#F2B544" stroke-width="3.4"/><line x1="349.9" y1="61.3" x2="358.3" y2="54.2" stroke="#F2B544" stroke-width="3.4"/><g transform="translate(70,150) scale(0.7)"><g transform="rotate(0 45 60)"><path d="M45,60 C28.0,46.4 31.4,26 45,19.200000000000003 C58.6,26 62.0,46.4 45,60 Z" fill="#9FB291"/><line x1="45" y1="60" x2="45" y2="24.299999999999997" stroke="#38332D" stroke-width="1.6" opacity="0.5"/></g><g transform="rotate(-42 45 64)"><path d="M45,64 C30.0,52.0 33.0,34 45,28.0 C57.0,34 60.0,52.0 45,64 Z" fill="#9FB291"/><line x1="45" y1="64" x2="45" y2="32.5" stroke="#38332D" stroke-width="1.6" opacity="0.5"/></g><g transform="rotate(42 45 64)"><path d="M45,64 C30.0,52.0 33.0,34 45,28.0 C57.0,34 60.0,52.0 45,64 Z" fill="#9FB291"/><line x1="45" y1="64" x2="45" y2="32.5" stroke="#38332D" stroke-width="1.6" opacity="0.5"/></g><g transform="rotate(-78 45 66)"><path d="M45,66 C33.0,56.4 35.4,42 45,37.2 C54.6,42 57.0,56.4 45,66 Z" fill="#9FB291"/><line x1="45" y1="66" x2="45" y2="40.8" stroke="#38332D" stroke-width="1.6" opacity="0.5"/></g><g transform="rotate(78 45 66)"><path d="M45,66 C33.0,56.4 35.4,42 45,37.2 C54.6,42 57.0,56.4 45,66 Z" fill="#9FB291"/><line x1="45" y1="66" x2="45" y2="40.8" stroke="#38332D" stroke-width="1.6" opacity="0.5"/></g><line x1="45" y1="64" x2="45" y2="92" stroke="#38332D" stroke-width="2.4" opacity="0.5"/><path d="M22,92 L68,92 L62,118 Q61,122 56,122 L34,122 Q29,122 28,118 Z" fill="#E98B6F" stroke="#38332D" stroke-width="3.4"/><rect x="18" y="86" width="54" height="10" rx="5" fill="#E98B6F" stroke="#38332D" stroke-width="3.4"/></g><g transform="translate(165,130) scale(0.95)"><g transform="rotate(0 45 60)"><path d="M45,60 C28.0,46.4 31.4,26 45,19.200000000000003 C58.6,26 62.0,46.4 45,60 Z" fill="#9FB291"/><line x1="45" y1="60" x2="45" y2="24.299999999999997" stroke="#38332D" stroke-width="1.6" opacity="0.5"/></g><g transform="rotate(-42 45 64)"><path d="M45,64 C30.0,52.0 33.0,34 45,28.0 C57.0,34 60.0,52.0 45,64 Z" fill="#9FB291"/><line x1="45" y1="64" x2="45" y2="32.5" stroke="#38332D" stroke-width="1.6" opacity="0.5"/></g><g transform="rotate(42 45 64)"><path d="M45,64 C30.0,52.0 33.0,34 45,28.0 C57.0,34 60.0,52.0 45,64 Z" fill="#9FB291"/><line x1="45" y1="64" x2="45" y2="32.5" stroke="#38332D" stroke-width="1.6" opacity="0.5"/></g><g transform="rotate(-78 45 66)"><path d="M45,66 C33.0,56.4 35.4,42 45,37.2 C54.6,42 57.0,56.4 45,66 Z" fill="#9FB291"/><line x1="45" y1="66" x2="45" y2="40.8" stroke="#38332D" stroke-width="1.6" opacity="0.5"/></g><g transform="rotate(78 45 66)"><path d="M45,66 C33.0,56.4 35.4,42 45,37.2 C54.6,42 57.0,56.4 45,66 Z" fill="#9FB291"/><line x1="45" y1="66" x2="45" y2="40.8" stroke="#38332D" stroke-width="1.6" opacity="0.5"/></g><line x1="45" y1="64" x2="45" y2="92" stroke="#38332D" stroke-width="2.4" opacity="0.5"/><path d="M22,92 L68,92 L62,118 Q61,122 56,122 L34,122 Q29,122 28,118 Z" fill="#D2694A" stroke="#38332D" stroke-width="3.4"/><rect x="18" y="86" width="54" height="10" rx="5" fill="#D2694A" stroke="#38332D" stroke-width="3.4"/></g><g transform="translate(270,110) scale(1.2)"><g transform="rotate(0 45 60)"><path d="M45,60 C28.0,46.4 31.4,26 45,19.200000000000003 C58.6,26 62.0,46.4 45,60 Z" fill="#9FB291"/><line x1="45" y1="60" x2="45" y2="24.299999999999997" stroke="#38332D" stroke-width="1.6" opacity="0.5"/></g><g transform="rotate(-42 45 64)"><path d="M45,64 C30.0,52.0 33.0,34 45,28.0 C57.0,34 60.0,52.0 45,64 Z" fill="#9FB291"/><line x1="45" y1="64" x2="45" y2="32.5" stroke="#38332D" stroke-width="1.6" opacity="0.5"/></g><g transform="rotate(42 45 64)"><path d="M45,64 C30.0,52.0 33.0,34 45,28.0 C57.0,34 60.0,52.0 45,64 Z" fill="#9FB291"/><line x1="45" y1="64" x2="45" y2="32.5" stroke="#38332D" stroke-width="1.6" opacity="0.5"/></g><g transform="rotate(-78 45 66)"><path d="M45,66 C33.0,56.4 35.4,42 45,37.2 C54.6,42 57.0,56.4 45,66 Z" fill="#9FB291"/><line x1="45" y1="66" x2="45" y2="40.8" stroke="#38332D" stroke-width="1.6" opacity="0.5"/></g><g transform="rotate(78 45 66)"><path d="M45,66 C33.0,56.4 35.4,42 45,37.2 C54.6,42 57.0,56.4 45,66 Z" fill="#9FB291"/><line x1="45" y1="66" x2="45" y2="40.8" stroke="#38332D" stroke-width="1.6" opacity="0.5"/></g><line x1="45" y1="64" x2="45" y2="92" stroke="#38332D" stroke-width="2.4" opacity="0.5"/><path d="M22,92 L68,92 L62,118 Q61,122 56,122 L34,122 Q29,122 28,118 Z" fill="#E98B6F" stroke="#38332D" stroke-width="3.4"/><rect x="18" y="86" width="54" height="10" rx="5" fill="#E98B6F" stroke="#38332D" stroke-width="3.4"/></g><circle cx="120" cy="250" r="4" fill="#F2B544"/><circle cx="225" cy="250" r="4" fill="#E98B6F"/><path d="M60,72 C61.44,78.56 61.44,78.56 68,80 C61.44,81.44 61.44,81.44 60,88 C58.56,81.44 58.56,81.44 52,80 C58.56,78.56 58.56,78.56 60,72 Z" fill="#E98B6F"/>
</svg>
