<svg xmlns="http://www.w3.org/2000/svg" viewBox="0 0 400 300" width="400" height="300" role="img" fill="none" stroke-linecap="round" stroke-linejoin="round">
<title>ochtendroutine</title>
<rect x="0" y="0" width="400" height="300" rx="26" fill="#FCEAE2"/><defs><clipPath id="cp400300FCEAE2"><rect x="0" y="0" width="400" height="300" rx="26"/></clipPath></defs><g clip-path="url(#cp400300FCEAE2)"><circle cx="312" cy="64" r="92" fill="#F2B544"/></g><circle cx="80" cy="76" r="22" fill="#F2B544"/><line x1="108.6" y1="76.0" x2="120.7" y2="76.0" stroke="#F2B544" stroke-width="3.4"/><line x1="101.9" y1="94.4" x2="111.2" y2="102.2" stroke="#F2B544" stroke-width="3.4"/><line x1="85.0" y1="104.2" x2="87.1" y2="116.1" stroke="#F2B544" stroke-width="3.4"/><line x1="65.7" y1="100.8" x2="59.7" y2="111.2" stroke="#F2B544" stroke-width="3.4"/><line x1="53.1" y1="85.8" x2="41.8" y2="89.9" stroke="#F2B544" stroke-width="3.4"/><line x1="53.1" y1="66.2" x2="41.8" y2="62.1" stroke="#F2B544" stroke-width="3.4"/><line x1="65.7" y1="51.2" x2="59.6" y2="40.8" stroke="#F2B544" stroke-width="3.4"/><line x1="85.0" y1="47.8" x2="87.1" y2="35.9" stroke="#F2B544" stroke-width="3.4"/><line x1="101.9" y1="57.6" x2="111.2" y2="49.8" stroke="#F2B544" stroke-width="3.4"/><g transform="translate(150,150) scale(1.65)"><ellipse cx="42" cy="86" rx="40" ry="6.5" fill="#F8DCD0" stroke="#38332D" stroke-width="3.4"/><path d="M14,30 Q14,26 18,26 L66,26 Q70,26 70,30 L66,74 Q65,82 56,82 L24,82 Q15,82 14,74 Z" fill="#FFFDF9" stroke="#38332D" stroke-width="3.4"/><path d="M70,38 a15,15 0 0 1 0,28" fill="none" stroke="#38332D" stroke-width="3.4"/><ellipse cx="42" cy="30" rx="24" ry="5.5" fill="#8B5A38"/><path d="M33,22 q-7,-9 0,-18 q7,-9 0,-18" stroke="#6E665B" stroke-width="2.6" opacity="0.55" fill="none"/><path d="M51,22 q7,-9 0,-18 q-7,-9 0,-18" stroke="#6E665B" stroke-width="2.6" opacity="0.55" fill="none"/></g><path d="M330,151 C331.62,158.38 331.62,158.38 339,160 C331.62,161.62 331.62,161.62 330,169 C328.38,161.62 328.38,161.62 321,160 C328.38,158.38 328.38,158.38 330,151 Z" fill="#E98B6F"/><circle cx="304" cy="232" r="5" fill="#E98B6F"/><circle cx="64" cy="214" r="4" fill="#9FB291"/><path d="M348,103.84 C340.8,97.0 341.4,91.0 348,95.8 C354.6,91.0 355.2,97.0 348,103.84 Z" fill="#E98B6F"/><circle cx="120" cy="250" r="3.4" fill="#E29A18"/>
</svg>
