<svg xmlns="http://www.w3.org/2000/svg" viewBox="0 0 400 300" width="400" height="300" role="img" fill="none" stroke-linecap="round" stroke-linejoin="round">
<title>digitale rust</title>
<rect x="0" y="0" width="400" height="300" rx="26" fill="#E4EADD"/><defs><clipPath id="cp400300E4EADD"><rect x="0" y="0" width="400" height="300" rx="26"/></clipPath></defs><g clip-path="url(#cp400300E4EADD)"><circle cx="90" cy="240" r="110" fill="#9FB291"/></g><g transform="translate(150,90) scale(1.5)"><rect x="10" y="14" width="56" height="100" rx="14" fill="#38332D" stroke="#38332D" stroke-width="3.4"/><circle cx="38" cy="26" r="3.2" fill="#E4EADD"/></g><g transform="translate(238,150) scale(1.25)"><g transform="rotate(0 45 60)"><path d="M45,60 C28.0,46.4 31.4,26 45,19.200000000000003 C58.6,26 62.0,46.4 45,60 Z" fill="#9FB291"/><line x1="45" y1="60" x2="45" y2="24.299999999999997" stroke="#38332D" stroke-width="1.6" opacity="0.5"/></g><g transform="rotate(-42 45 64)"><path d="M45,64 C30.0,52.0 33.0,34 45,28.0 C57.0,34 60.0,52.0 45,64 Z" fill="#9FB291"/><line x1="45" y1="64" x2="45" y2="32.5" stroke="#38332D" stroke-width="1.6" opacity="0.5"/></g><g transform="rotate(42 45 64)"><path d="M45,64 C30.0,52.0 33.0,34 45,28.0 C57.0,34 60.0,52.0 45,64 Z" fill="#9FB291"/><line x1="45" y1="64" x2="45" y2="32.5" stroke="#38332D" stroke-width="1.6" opacity="0.5"/></g><g transform="rotate(-78 45 66)"><path d="M45,66 C33.0,56.4 35.4,42 45,37.2 C54.6,42 57.0,56.4 45,66 Z" fill="#9FB291"/><line x1="45" y1="66" x2="45" y2="40.8" stroke="#38332D" stroke-width="1.6" opacity="0.5"/></g><g transform="rotate(78 45 66)"><path d="M45,66 C33.0,56.4 35.4,42 45,37.2 C54.6,42 57.0,56.4 45,66 Z" fill="#9FB291"/><line x1="45" y1="66" x2="45" y2="40.8" stroke="#38332D" stroke-width="1.6" opacity="0.5"/></g><line x1="45" y1="64" x2="45" y2="92" stroke="#38332D" stroke-width="2.4" opacity="0.5"/><path d="M22,92 L68,92 L62,118 Q61,122 56,122 L34,122 Q29,122 28,118 Z" fill="#E98B6F" stroke="#38332D" stroke-width="3.4"/><rect x="18" y="86" width="54" height="10" rx="5" fill="#E98B6F" stroke="#38332D" stroke-width="3.4"/></g><path d="M120,70 C121.8,78.2 121.8,78.2 130,80 C121.8,81.8 121.8,81.8 120,90 C118.2,81.8 118.2,81.8 110,80 C118.2,78.2 118.2,78.2 120,70 Z" fill="#F2B544"/><path d="M300,63 C301.26,68.74 301.26,68.74 307,70 C301.26,71.26 301.26,71.26 300,77 C298.74,71.26 298.74,71.26 293,70 C298.74,68.74 298.74,68.74 300,63 Z" fill="#E98B6F"/><circle cx="320" cy="210" r="5" fill="#F2B544"/><g stroke="#9FB291" stroke-width="5" stroke-linecap="round" opacity="0.9"><line x1="236" y1="64" x2="252" y2="64"/><line x1="240" y1="78" x2="256" y2="78"/></g>
</svg>
