<svg xmlns="http://www.w3.org/2000/svg" viewBox="0 0 400 300" width="400" height="300" role="img" fill="none" stroke-linecap="round" stroke-linejoin="round">
<title>opruimen</title>
<rect x="0" y="0" width="400" height="300" rx="26" fill="#E2EEF1"/><defs><clipPath id="cp400300E2EEF1"><rect x="0" y="0" width="400" height="300" rx="26"/></clipPath></defs><g clip-path="url(#cp400300E2EEF1)"><circle cx="300" cy="230" r="110" fill="#BCD4DD"/></g><g transform="translate(96,120) scale(1.15)"><path d="M14,40 L96,40 L88,104 Q87,108 82,108 L28,108 Q23,108 22,104 Z" fill="#BCD4DD" stroke="#38332D" stroke-width="3.4"/><rect x="8" y="32" width="94" height="12" rx="6" fill="#BCD4DD" stroke="#38332D" stroke-width="3.4"/><line x1="26" y1="46" x2="22" y2="104" stroke="#38332D" stroke-width="1.8" opacity="0.35"/><line x1="40" y1="46" x2="36" y2="104" stroke="#38332D" stroke-width="1.8" opacity="0.35"/><line x1="54" y1="46" x2="50" y2="104" stroke="#38332D" stroke-width="1.8" opacity="0.35"/><line x1="68" y1="46" x2="64" y2="104" stroke="#38332D" stroke-width="1.8" opacity="0.35"/><line x1="82" y1="46" x2="78" y2="104" stroke="#38332D" stroke-width="1.8" opacity="0.35"/></g><g transform="translate(232,150) scale(0.95)"><path d="M14,40 L96,40 L88,104 Q87,108 82,108 L28,108 Q23,108 22,104 Z" fill="#E98B6F" stroke="#38332D" stroke-width="3.4"/><rect x="8" y="32" width="94" height="12" rx="6" fill="#E98B6F" stroke="#38332D" stroke-width="3.4"/><line x1="26" y1="46" x2="22" y2="104" stroke="#38332D" stroke-width="1.8" opacity="0.35"/><line x1="40" y1="46" x2="36" y2="104" stroke="#38332D" stroke-width="1.8" opacity="0.35"/><line x1="54" y1="46" x2="50" y2="104" stroke="#38332D" stroke-width="1.8" opacity="0.35"/><line x1="68" y1="46" x2="64" y2="104" stroke="#38332D" stroke-width="1.8" opacity="0.35"/><line x1="82" y1="46" x2="78" y2="104" stroke="#38332D" stroke-width="1.8" opacity="0.35"/></g><g transform="translate(286,96) scale(0.55)"><g transform="rotate(0 45 60)"><path d="M45,60 C28.0,46.4 31.4,26 45,19.200000000000003 C58.6,26 62.0,46.4 45,60 Z" fill="#9FB291"/><line x1="45" y1="60" x2="45" y2="24.299999999999997" stroke="#38332D" stroke-width="1.6" opacity="0.5"/></g><g transform="rotate(-42 45 64)"><path d="M45,64 C30.0,52.0 33.0,34 45,28.0 C57.0,34 60.0,52.0 45,64 Z" fill="#9FB291"/><line x1="45" y1="64" x2="45" y2="32.5" stroke="#38332D" stroke-width="1.6" opacity="0.5"/></g><g transform="rotate(42 45 64)"><path d="M45,64 C30.0,52.0 33.0,34 45,28.0 C57.0,34 60.0,52.0 45,64 Z" fill="#9FB291"/><line x1="45" y1="64" x2="45" y2="32.5" stroke="#38332D" stroke-width="1.6" opacity="0.5"/></g><g transform="rotate(-78 45 66)"><path d="M45,66 C33.0,56.4 35.4,42 45,37.2 C54.6,42 57.0,56.4 45,66 Z" fill="#9FB291"/><line x1="45" y1="66" x2="45" y2="40.8" stroke="#38332D" stroke-width="1.6" opacity="0.5"/></g><g transform="rotate(78 45 66)"><path d="M45,66 C33.0,56.4 35.4,42 45,37.2 C54.6,42 57.0,56.4 45,66 Z" fill="#9FB291"/><line x1="45" y1="66" x2="45" y2="40.8" stroke="#38332D" stroke-width="1.6" opacity="0.5"/></g><line x1="45" y1="64" x2="45" y2="92" stroke="#38332D" stroke-width="2.4" opacity="0.5"/><path d="M22,92 L68,92 L62,118 Q61,122 56,122 L34,122 Q29,122 28,118 Z" fill="#9FB291" stroke="#38332D" stroke-width="3.4"/><rect x="18" y="86" width="54" height="10" rx="5" fill="#9FB291" stroke="#38332D" stroke-width="3.4"/></g><path d="M120,76 C121.8,84.2 121.8,84.2 130,86 C121.8,87.8 121.8,87.8 120,96 C118.2,87.8 118.2,87.8 110,86 C118.2,84.2 118.2,84.2 120,76 Z" fill="#F2B544"/><path d="M330,143 C331.26,148.74 331.26,148.74 337,150 C331.26,151.26 331.26,151.26 330,157 C328.74,151.26 328.74,151.26 323,150 C328.74,148.74 328.74,148.74 330,143 Z" fill="#E98B6F"/><circle cx="86" cy="246" r="4" fill="#E98B6F"/>
</svg>
