<svg xmlns="http://www.w3.org/2000/svg" viewBox="0 0 400 300" width="400" height="300" role="img" fill="none" stroke-linecap="round" stroke-linejoin="round">
<title>zelfzorg</title>
<rect x="0" y="0" width="400" height="300" rx="26" fill="#E2EEF1"/><defs><clipPath id="cp400300E2EEF1"><rect x="0" y="0" width="400" height="300" rx="26"/></clipPath></defs><g clip-path="url(#cp400300E2EEF1)"><circle cx="320" cy="64" r="90" fill="#F2B544"/></g><circle cx="78" cy="74" r="22" fill="#F2B544"/><line x1="106.6" y1="74.0" x2="118.7" y2="74.0" stroke="#F2B544" stroke-width="3.4"/><line x1="99.9" y1="92.4" x2="109.2" y2="100.2" stroke="#F2B544" stroke-width="3.4"/><line x1="83.0" y1="102.2" x2="85.1" y2="114.1" stroke="#F2B544" stroke-width="3.4"/><line x1="63.7" y1="98.8" x2="57.7" y2="109.2" stroke="#F2B544" stroke-width="3.4"/><line x1="51.1" y1="83.8" x2="39.8" y2="87.9" stroke="#F2B544" stroke-width="3.4"/><line x1="51.1" y1="64.2" x2="39.8" y2="60.1" stroke="#F2B544" stroke-width="3.4"/><line x1="63.7" y1="49.2" x2="57.6" y2="38.8" stroke="#F2B544" stroke-width="3.4"/><line x1="83.0" y1="45.8" x2="85.1" y2="33.9" stroke="#F2B544" stroke-width="3.4"/><line x1="99.9" y1="55.6" x2="109.2" y2="47.8" stroke="#F2B544" stroke-width="3.4"/><g transform="translate(160,150) scale(1.45)"><path d="M16,18 L58,18 L52,96 Q51,102 45,102 L29,102 Q23,102 22,96 Z" fill="#E2EEF1" stroke="#38332D" stroke-width="3.4"/><path d="M19,42 L55,42 L51,96 Q50,102 44,102 L30,102 Q24,102 23,96 Z" fill="#F2B544" opacity="0.85"/><line x1="40" y1="14" x2="48" y2="-6" stroke="#E98B6F" stroke-width="5"/><g transform="translate(50 24)"><circle r="13" fill="#FBE08A" stroke="#38332D" stroke-width="2.6"/><circle r="8" fill="#FCEFB6"/><line x1="-7" y1="0" x2="7" y2="0" stroke="#E29A18" stroke-width="1.6"/><line x1="0" y1="-7" x2="0" y2="7" stroke="#E29A18" stroke-width="1.6"/></g><circle cx="32" cy="60" r="2.4" fill="#FCEFB6"/><circle cx="40" cy="72" r="2" fill="#FCEFB6"/><circle cx="34" cy="84" r="1.8" fill="#FCEFB6"/></g><g transform="rotate(20 300 210)"><path d="M300,210 C287.0,199.6 289.6,184 300,178.8 C310.4,184 313.0,199.6 300,210 Z" fill="#9FB291"/><line x1="300" y1="210" x2="300" y2="182.7" stroke="#38332D" stroke-width="1.6" opacity="0.5"/></g><g transform="rotate(-30 330 220)"><path d="M330,220 C319.0,211.2 321.2,198 330,193.6 C338.8,198 341.0,211.2 330,220 Z" fill="#9FB291"/><line x1="330" y1="220" x2="330" y2="196.9" stroke="#38332D" stroke-width="1.6" opacity="0.5"/></g><path d="M120,81 C121.62,88.38 121.62,88.38 129,90 C121.62,91.62 121.62,91.62 120,99 C118.38,91.62 118.38,91.62 111,90 C118.38,88.38 118.38,88.38 120,81 Z" fill="#E98B6F"/><path d="M320,113.84 C312.8,107.0 313.4,101.0 320,105.8 C326.6,101.0 327.2,107.0 320,113.84 Z" fill="#E98B6F"/><circle cx="100" cy="250" r="4" fill="#E29A18"/>
</svg>
