<svg xmlns="http://www.w3.org/2000/svg" viewBox="0 0 400 300" width="400" height="300" role="img" fill="none" stroke-linecap="round" stroke-linejoin="round">
<title>avondroutine</title>
<rect x="0" y="0" width="400" height="300" rx="26" fill="#DFE3EE"/><defs><clipPath id="cp400300DFE3EE"><rect x="0" y="0" width="400" height="300" rx="26"/></clipPath></defs><g clip-path="url(#cp400300DFE3EE)"><circle cx="90" cy="80" r="100" fill="#CBD2E6"/></g><g transform="translate(250,40) scale(1.0)"><path d="M64,12 A40,40 0 1 0 64,92 A30,30 0 1 1 64,12 Z" fill="#F6E4B0" stroke="#38332D" stroke-width="3.4"/></g><path d="M120,62 C121.44,68.56 121.44,68.56 128,70 C121.44,71.44 121.44,71.44 120,78 C118.56,71.44 118.56,71.44 112,70 C118.56,68.56 118.56,68.56 120,62 Z" fill="#F6E4B0"/><path d="M320,144 C321.08,148.92 321.08,148.92 326,150 C321.08,151.08 321.08,151.08 320,156 C318.92,151.08 318.92,151.08 314,150 C318.92,148.92 318.92,148.92 320,144 Z" fill="#F6E4B0"/><path d="M90,145 C90.9,149.1 90.9,149.1 95,150 C90.9,150.9 90.9,150.9 90,155 C89.1,150.9 89.1,150.9 85,150 C89.1,149.1 89.1,149.1 90,145 Z" fill="#F6E4B0"/><path d="M300,55 C300.9,59.1 300.9,59.1 305,60 C300.9,60.9 300.9,60.9 300,65 C299.1,60.9 299.1,60.9 295,60 C299.1,59.1 299.1,59.1 300,55 Z" fill="#F6E4B0"/><g transform="translate(150,150) scale(1.5)"><ellipse cx="42" cy="86" rx="40" ry="6.5" fill="#F8DCD0" stroke="#38332D" stroke-width="3.4"/><path d="M14,30 Q14,26 18,26 L66,26 Q70,26 70,30 L66,74 Q65,82 56,82 L24,82 Q15,82 14,74 Z" fill="#FFFDF9" stroke="#38332D" stroke-width="3.4"/><path d="M70,38 a15,15 0 0 1 0,28" fill="none" stroke="#38332D" stroke-width="3.4"/><ellipse cx="42" cy="30" rx="24" ry="5.5" fill="#7E5A8E"/><path d="M33,22 q-7,-9 0,-18 q7,-9 0,-18" stroke="#6E665B" stroke-width="2.6" opacity="0.55" fill="none"/><path d="M51,22 q7,-9 0,-18 q-7,-9 0,-18" stroke="#6E665B" stroke-width="2.6" opacity="0.55" fill="none"/></g><g transform="translate(300,196) scale(0.7)"><rect x="14" y="38" width="34" height="56" rx="6" fill="#FCEAE2" stroke="#38332D" stroke-width="3.4"/><ellipse cx="31" cy="38" rx="17" ry="5" fill="#FFFDF9" stroke="#38332D" stroke-width="2.4"/><line x1="31" y1="34" x2="31" y2="26" stroke="#38332D" stroke-width="2.4"/><path d="M31,26 C26,20 26,12 31,4 C36,12 36,20 31,26 Z" fill="#F2B544"/><path d="M31,24 C28,20 28,15 31,9 C34,15 34,20 31,24 Z" fill="#D2694A" opacity="0.7"/></g><circle cx="180" cy="256" r="3.6" fill="#F6E4B0"/>
</svg>
