<svg xmlns="http://www.w3.org/2000/svg" viewBox="0 0 400 300" width="400" height="300" role="img" fill="none" stroke-linecap="round" stroke-linejoin="round">
<title>hygge</title>
<rect x="0" y="0" width="400" height="300" rx="26" fill="#F8DCD0"/><defs><clipPath id="cp400300F8DCD0"><rect x="0" y="0" width="400" height="300" rx="26"/></clipPath></defs><g clip-path="url(#cp400300F8DCD0)"><circle cx="96" cy="96" r="92" fill="#FCEAE2"/></g><g transform="translate(118,96) scale(1.25)"><path d="M22,30 Q24,12 44,12 L106,12 Q126,12 128,30 L128,70 L22,70 Z" fill="#E98B6F" stroke="#38332D" stroke-width="3.4"/><rect x="10" y="58" width="20" height="48" rx="9" fill="#E98B6F" stroke="#38332D" stroke-width="3.4"/><rect x="120" y="58" width="20" height="48" rx="9" fill="#E98B6F" stroke="#38332D" stroke-width="3.4"/><path d="M14,68 L136,68 L130,104 L20,104 Z" fill="#E98B6F" stroke="#38332D" stroke-width="3.4"/><path d="M40,52 Q75,44 110,52 L108,70 L42,70 Z" fill="#FCEAE2" stroke="#38332D" stroke-width="2.6"/><line x1="30" y1="104" x2="26" y2="118" stroke="#38332D" stroke-width="3.4"/><line x1="120" y1="104" x2="124" y2="118" stroke="#38332D" stroke-width="3.4"/></g><g transform="translate(282,120) scale(1.05)"><rect x="14" y="38" width="34" height="56" rx="6" fill="#FCEAE2" stroke="#38332D" stroke-width="3.4"/><ellipse cx="31" cy="38" rx="17" ry="5" fill="#FFFDF9" stroke="#38332D" stroke-width="2.4"/><line x1="31" y1="34" x2="31" y2="26" stroke="#38332D" stroke-width="2.4"/><path d="M31,26 C26,20 26,12 31,4 C36,12 36,20 31,26 Z" fill="#F2B544"/><path d="M31,24 C28,20 28,15 31,9 C34,15 34,20 31,24 Z" fill="#D2694A" opacity="0.7"/></g><g transform="translate(300,196) scale(0.7)"><g transform="rotate(0 45 60)"><path d="M45,60 C28.0,46.4 31.4,26 45,19.200000000000003 C58.6,26 62.0,46.4 45,60 Z" fill="#9FB291"/><line x1="45" y1="60" x2="45" y2="24.299999999999997" stroke="#38332D" stroke-width="1.6" opacity="0.5"/></g><g transform="rotate(-42 45 64)"><path d="M45,64 C30.0,52.0 33.0,34 45,28.0 C57.0,34 60.0,52.0 45,64 Z" fill="#9FB291"/><line x1="45" y1="64" x2="45" y2="32.5" stroke="#38332D" stroke-width="1.6" opacity="0.5"/></g><g transform="rotate(42 45 64)"><path d="M45,64 C30.0,52.0 33.0,34 45,28.0 C57.0,34 60.0,52.0 45,64 Z" fill="#9FB291"/><line x1="45" y1="64" x2="45" y2="32.5" stroke="#38332D" stroke-width="1.6" opacity="0.5"/></g><g transform="rotate(-78 45 66)"><path d="M45,66 C33.0,56.4 35.4,42 45,37.2 C54.6,42 57.0,56.4 45,66 Z" fill="#9FB291"/><line x1="45" y1="66" x2="45" y2="40.8" stroke="#38332D" stroke-width="1.6" opacity="0.5"/></g><g transform="rotate(78 45 66)"><path d="M45,66 C33.0,56.4 35.4,42 45,37.2 C54.6,42 57.0,56.4 45,66 Z" fill="#9FB291"/><line x1="45" y1="66" x2="45" y2="40.8" stroke="#38332D" stroke-width="1.6" opacity="0.5"/></g><line x1="45" y1="64" x2="45" y2="92" stroke="#38332D" stroke-width="2.4" opacity="0.5"/><path d="M22,92 L68,92 L62,118 Q61,122 56,122 L34,122 Q29,122 28,118 Z" fill="#9FB291" stroke="#38332D" stroke-width="3.4"/><rect x="18" y="86" width="54" height="10" rx="5" fill="#9FB291" stroke="#38332D" stroke-width="3.4"/></g><circle cx="70" cy="74" r="16" fill="#F2B544"/><line x1="90.8" y1="74.0" x2="99.6" y2="74.0" stroke="#F2B544" stroke-width="3.4"/><line x1="84.7" y1="88.7" x2="90.9" y2="94.9" stroke="#F2B544" stroke-width="3.4"/><line x1="70.0" y1="94.8" x2="70.0" y2="103.6" stroke="#F2B544" stroke-width="3.4"/><line x1="55.3" y1="88.7" x2="49.1" y2="94.9" stroke="#F2B544" stroke-width="3.4"/><line x1="49.2" y1="74.0" x2="40.4" y2="74.0" stroke="#F2B544" stroke-width="3.4"/><line x1="55.3" y1="59.3" x2="49.1" y2="53.1" stroke="#F2B544" stroke-width="3.4"/><line x1="70.0" y1="53.2" x2="70.0" y2="44.4" stroke="#F2B544" stroke-width="3.4"/><line x1="84.7" y1="59.3" x2="90.9" y2="53.1" stroke="#F2B544" stroke-width="3.4"/><path d="M330,89.52 C323.4,83.25 323.95,77.75 330,82.15 C336.05,77.75 336.6,83.25 330,89.52 Z" fill="#E98B6F"/><circle cx="150" cy="256" r="4" fill="#9FB291"/>
</svg>
