<svg xmlns="http://www.w3.org/2000/svg" viewBox="0 0 420 420" width="420" height="420" role="img" fill="none" stroke-linecap="round" stroke-linejoin="round">
<circle cx="210" cy="210" r="206" fill="#FCEAE2"/><circle cx="210" cy="210" r="206" fill="none" stroke="#E98B6F" stroke-width="4" opacity="0.5"/><circle cx="70" cy="80" r="16" fill="#F2B544"/><line x1="90.8" y1="80.0" x2="99.6" y2="80.0" stroke="#F2B544" stroke-width="3.4"/><line x1="84.7" y1="94.7" x2="90.9" y2="100.9" stroke="#F2B544" stroke-width="3.4"/><line x1="70.0" y1="100.8" x2="70.0" y2="109.6" stroke="#F2B544" stroke-width="3.4"/><line x1="55.3" y1="94.7" x2="49.1" y2="100.9" stroke="#F2B544" stroke-width="3.4"/><line x1="49.2" y1="80.0" x2="40.4" y2="80.0" stroke="#F2B544" stroke-width="3.4"/><line x1="55.3" y1="65.3" x2="49.1" y2="59.1" stroke="#F2B544" stroke-width="3.4"/><line x1="70.0" y1="59.2" x2="70.0" y2="50.4" stroke="#F2B544" stroke-width="3.4"/><line x1="84.7" y1="65.3" x2="90.9" y2="59.1" stroke="#F2B544" stroke-width="3.4"/><path d="M350,100.48 C341.6,92.5 342.3,85.5 350,91.1 C357.7,85.5 358.4,92.5 350,100.48 Z" fill="#E98B6F"/><path d="M360,290 C361.8,298.2 361.8,298.2 370,300 C361.8,301.8 361.8,301.8 360,310 C358.2,301.8 358.2,301.8 350,300 C358.2,298.2 358.2,298.2 360,290 Z" fill="#F2B544"/><circle cx="64" cy="320" r="6" fill="#9FB291"/><defs><clipPath id="ava"><circle cx="210" cy="210" r="206"/></clipPath></defs><g clip-path="url(#ava)"><path d="M104,196 C100,118 150,74 210,74 C270,74 320,118 316,196 C314,232 312,260 300,300 L120,300 C108,260 106,232 104,196 Z" fill="#A9743F"/><path d="M188,250 h44 v34 q-22,12 -44,0 z" fill="#E3B083"/><path d="M120,420 C120,338 162,300 210,300 C258,300 300,338 300,420 Z" fill="#E98B6F"/><path d="M210,300 C232,302 250,312 262,330 L210,344 L158,330 C170,312 188,302 210,300 Z" fill="#FFFDF9" opacity="0.85"/><ellipse cx="210" cy="186" rx="74" ry="84" fill="#F0C49B"/><circle cx="138" cy="190" r="13" fill="#F0C49B"/><circle cx="282" cy="190" r="13" fill="#F0C49B"/><circle cx="282" cy="192" r="4.5" fill="#F2B544"/><path d="M136,196 C128,120 158,78 210,78 C262,78 292,120 284,196 C282,168 268,150 250,150 C236,150 232,140 210,140 C188,140 184,150 170,150 C152,150 138,168 136,196 Z" fill="#A9743F"/><path d="M210,78 C176,80 150,104 144,150 C158,120 182,112 210,112 Z" fill="#C49058" opacity="0.55"/><ellipse cx="173.0" cy="120.0" rx="7" ry="10" fill="#F2B544" transform="rotate(0 173.0 120.0)"/><ellipse cx="165.4" cy="130.5" rx="7" ry="10" fill="#F2B544" transform="rotate(72 165.4 130.5)"/><ellipse cx="153.1" cy="126.5" rx="7" ry="10" fill="#F2B544" transform="rotate(144 153.1 126.5)"/><ellipse cx="153.1" cy="113.5" rx="7" ry="10" fill="#F2B544" transform="rotate(216 153.1 113.5)"/><ellipse cx="165.4" cy="109.5" rx="7" ry="10" fill="#F2B544" transform="rotate(288 165.4 109.5)"/><circle cx="162" cy="120" r="6" fill="#D2694A"/><path d="M170,162 q14,-7 26,-1" stroke="#38332D" stroke-width="4" fill="none" stroke-linecap="round"/><path d="M224,161 q12,-6 26,1" stroke="#38332D" stroke-width="4" fill="none" stroke-linecap="round"/><ellipse cx="183" cy="184" rx="6.5" ry="8.5" fill="#38332D"/><circle cx="185.2" cy="181" r="2.2" fill="#fff"/><ellipse cx="237" cy="184" rx="6.5" ry="8.5" fill="#38332D"/><circle cx="239.2" cy="181" r="2.2" fill="#fff"/><ellipse cx="166" cy="208" rx="14" ry="9" fill="#E98B6F" opacity="0.45"/><ellipse cx="254" cy="208" rx="14" ry="9" fill="#E98B6F" opacity="0.45"/><path d="M210,194 q4,8 -3,12" stroke="#E3B083" stroke-width="3.4" fill="none" stroke-linecap="round"/><circle cx="180" cy="206" r="1.6" fill="#E3B083"/><circle cx="188" cy="212" r="1.6" fill="#E3B083"/><circle cx="196" cy="208" r="1.6" fill="#E3B083"/><circle cx="224" cy="208" r="1.6" fill="#E3B083"/><circle cx="232" cy="212" r="1.6" fill="#E3B083"/><circle cx="240" cy="206" r="1.6" fill="#E3B083"/><path d="M186,224 Q210,246 234,224" stroke="#38332D" stroke-width="4.2" fill="none" stroke-linecap="round"/><path d="M192,228 Q210,240 228,228 Q210,235 192,228 Z" fill="#D2694A"/></g>
</svg>
