<svg xmlns="http://www.w3.org/2000/svg" viewBox="0 0 520 470" width="520" height="470" role="img" fill="none" stroke-linecap="round" stroke-linejoin="round">
<rect x="0" y="0" width="520" height="470" rx="26" fill="#FCEAE2"/><defs><clipPath id="cp520470FCEAE2"><rect x="0" y="0" width="520" height="470" rx="26"/></clipPath></defs><g clip-path="url(#cp520470FCEAE2)"><circle cx="410" cy="110" r="150" fill="#F2B544"/></g><circle cx="120" cy="110" r="40" fill="#F2B544"/><line x1="172.0" y1="110.0" x2="198.0" y2="110.0" stroke="#F2B544" stroke-width="3.4"/><line x1="163.7" y1="138.1" x2="185.6" y2="152.2" stroke="#F2B544" stroke-width="3.4"/><line x1="141.6" y1="157.3" x2="152.4" y2="181.0" stroke="#F2B544" stroke-width="3.4"/><line x1="112.6" y1="161.5" x2="108.9" y2="187.2" stroke="#F2B544" stroke-width="3.4"/><line x1="85.9" y1="149.3" x2="68.9" y2="168.9" stroke="#F2B544" stroke-width="3.4"/><line x1="70.1" y1="124.7" x2="45.2" y2="132.0" stroke="#F2B544" stroke-width="3.4"/><line x1="70.1" y1="95.3" x2="45.2" y2="88.0" stroke="#F2B544" stroke-width="3.4"/><line x1="85.9" y1="70.7" x2="68.9" y2="51.1" stroke="#F2B544" stroke-width="3.4"/><line x1="112.6" y1="58.5" x2="108.9" y2="32.8" stroke="#F2B544" stroke-width="3.4"/><line x1="141.6" y1="62.7" x2="152.4" y2="39.0" stroke="#F2B544" stroke-width="3.4"/><line x1="163.7" y1="81.9" x2="185.6" y2="67.8" stroke="#F2B544" stroke-width="3.4"/><g transform="translate(70,250) scale(2.1)"><ellipse cx="42" cy="86" rx="40" ry="6.5" fill="#F8DCD0" stroke="#38332D" stroke-width="3.4"/><path d="M14,30 Q14,26 18,26 L66,26 Q70,26 70,30 L66,74 Q65,82 56,82 L24,82 Q15,82 14,74 Z" fill="#FFFDF9" stroke="#38332D" stroke-width="3.4"/><path d="M70,38 a15,15 0 0 1 0,28" fill="none" stroke="#38332D" stroke-width="3.4"/><ellipse cx="42" cy="30" rx="24" ry="5.5" fill="#8B5A38"/><path d="M33,22 q-7,-9 0,-18 q7,-9 0,-18" stroke="#6E665B" stroke-width="2.6" opacity="0.55" fill="none"/><path d="M51,22 q7,-9 0,-18 q-7,-9 0,-18" stroke="#6E665B" stroke-width="2.6" opacity="0.55" fill="none"/></g><g transform="translate(250,250) scale(1.7)"><path d="M12,30 Q75,18 138,30 L138,96 Q75,84 12,96 Z" fill="#FFFDF9" stroke="#38332D" stroke-width="3.4"/><line x1="75" y1="22" x2="75" y2="90" stroke="#38332D" stroke-width="2.4"/><line x1="20" y1="44" x2="66" y2="42" stroke="#6E665B" stroke-width="2" opacity="0.45"/><line x1="84" y1="42" x2="130" y2="44" stroke="#6E665B" stroke-width="2" opacity="0.45"/><line x1="20" y1="56" x2="66" y2="54" stroke="#6E665B" stroke-width="2" opacity="0.45"/><line x1="84" y1="54" x2="130" y2="56" stroke="#6E665B" stroke-width="2" opacity="0.45"/><line x1="20" y1="68" x2="66" y2="66" stroke="#6E665B" stroke-width="2" opacity="0.45"/><line x1="84" y1="66" x2="130" y2="68" stroke="#6E665B" stroke-width="2" opacity="0.45"/><path d="M118,18 l0,40 -8,-8 -8,8 0,-40 z" fill="#E98B6F" stroke="#38332D" stroke-width="2.6"/></g><g transform="translate(430,286) scale(1.35)"><g transform="rotate(38 45 50)"><rect x="36" y="6" width="18" height="74" rx="4" fill="#F2B544" stroke="#38332D" stroke-width="3.4"/><path d="M36,80 L54,80 L45,96 Z" fill="#38332D"/><rect x="36" y="6" width="18" height="9" rx="3" fill="#D2694A" stroke="#38332D" stroke-width="2.4"/></g></g><g transform="translate(372,150) scale(1.45)"><g transform="rotate(0 45 60)"><path d="M45,60 C28.0,46.4 31.4,26 45,19.200000000000003 C58.6,26 62.0,46.4 45,60 Z" fill="#9FB291"/><line x1="45" y1="60" x2="45" y2="24.299999999999997" stroke="#38332D" stroke-width="1.6" opacity="0.5"/></g><g transform="rotate(-42 45 64)"><path d="M45,64 C30.0,52.0 33.0,34 45,28.0 C57.0,34 60.0,52.0 45,64 Z" fill="#9FB291"/><line x1="45" y1="64" x2="45" y2="32.5" stroke="#38332D" stroke-width="1.6" opacity="0.5"/></g><g transform="rotate(42 45 64)"><path d="M45,64 C30.0,52.0 33.0,34 45,28.0 C57.0,34 60.0,52.0 45,64 Z" fill="#9FB291"/><line x1="45" y1="64" x2="45" y2="32.5" stroke="#38332D" stroke-width="1.6" opacity="0.5"/></g><g transform="rotate(-78 45 66)"><path d="M45,66 C33.0,56.4 35.4,42 45,37.2 C54.6,42 57.0,56.4 45,66 Z" fill="#9FB291"/><line x1="45" y1="66" x2="45" y2="40.8" stroke="#38332D" stroke-width="1.6" opacity="0.5"/></g><g transform="rotate(78 45 66)"><path d="M45,66 C33.0,56.4 35.4,42 45,37.2 C54.6,42 57.0,56.4 45,66 Z" fill="#9FB291"/><line x1="45" y1="66" x2="45" y2="40.8" stroke="#38332D" stroke-width="1.6" opacity="0.5"/></g><line x1="45" y1="64" x2="45" y2="92" stroke="#38332D" stroke-width="2.4" opacity="0.5"/><path d="M22,92 L68,92 L62,118 Q61,122 56,122 L34,122 Q29,122 28,118 Z" fill="#9FB291" stroke="#38332D" stroke-width="3.4"/><rect x="18" y="86" width="54" height="10" rx="5" fill="#9FB291" stroke="#38332D" stroke-width="3.4"/></g><path d="M150,365.76 C139.2,355.5 140.1,346.5 150,353.7 C159.9,346.5 160.8,355.5 150,365.76 Z" fill="#E98B6F"/><path d="M470,134.48 C461.6,126.5 462.3,119.5 470,125.1 C477.7,119.5 478.4,126.5 470,134.48 Z" fill="#F2B544"/><path d="M300,108 C302.16,117.84 302.16,117.84 312,120 C302.16,122.16 302.16,122.16 300,132 C297.84,122.16 297.84,122.16 288,120 C297.84,117.84 297.84,117.84 300,108 Z" fill="#E98B6F"/><path d="M60,370 C61.8,378.2 61.8,378.2 70,380 C61.8,381.8 61.8,381.8 60,390 C58.2,381.8 58.2,381.8 50,380 C58.2,378.2 58.2,378.2 60,370 Z" fill="#F2B544"/><circle cx="220" cy="420" r="6" fill="#9FB291"/><circle cx="480" cy="360" r="5" fill="#E98B6F"/><circle cx="40" cy="180" r="5" fill="#E29A18"/>
</svg>
