<svg xmlns="http://www.w3.org/2000/svg" viewBox="0 0 1200 630" width="1200" height="630" role="img" fill="none" stroke-linecap="round" stroke-linejoin="round">
<rect width="1200" height="630" fill="#FBF6EE"/><rect width="1200" height="630" fill="none"/><circle cx="120" cy="80" r="220" fill="#F2B544" opacity="0.16"/><circle cx="1120" cy="560" r="260" fill="#E98B6F" opacity="0.16"/><g transform="translate(150,250) scale(4.0)"><circle cx="20" cy="20" r="11.5" fill="#F2B544"/><line x1="32.9" y1="25.3" x2="37.1" y2="27.0" stroke="#F2B544" stroke-width="2.6"/><line x1="25.4" y1="32.9" x2="27.1" y2="37.1" stroke="#F2B544" stroke-width="2.6"/><line x1="14.7" y1="32.9" x2="13.0" y2="37.1" stroke="#F2B544" stroke-width="2.6"/><line x1="7.1" y1="25.4" x2="2.9" y2="27.1" stroke="#F2B544" stroke-width="2.6"/><line x1="7.1" y1="14.7" x2="2.9" y2="13.0" stroke="#F2B544" stroke-width="2.6"/><line x1="14.6" y1="7.1" x2="12.9" y2="2.9" stroke="#F2B544" stroke-width="2.6"/><line x1="25.3" y1="7.1" x2="27.0" y2="2.9" stroke="#F2B544" stroke-width="2.6"/><line x1="32.9" y1="14.6" x2="37.1" y2="12.9" stroke="#F2B544" stroke-width="2.6"/><circle cx="16" cy="18" r="1.7" fill="#38332D"/><circle cx="24" cy="18" r="1.7" fill="#38332D"/><path d="M14.5,22.5 Q20,27 25.5,22.5" stroke="#38332D" stroke-width="2.2" fill="none" stroke-linecap="round"/></g><text x="330" y="290" font-family="Fraunces, Georgia, serif" font-weight="600" font-size="92" fill="#38332D">The Happy Days</text><text x="334" y="360" font-family="Mulish, sans-serif" font-weight="700" font-size="34" fill="#6E665B">Een Nederlandse leefstijlblog over alledaags geluk</text><circle cx="1040" cy="150" r="50" fill="#F2B544"/><line x1="1105.0" y1="150.0" x2="1135.0" y2="150.0" stroke="#F2B544" stroke-width="3.4"/><line x1="1094.7" y1="185.1" x2="1119.9" y2="201.4" stroke="#F2B544" stroke-width="3.4"/><line x1="1067.0" y1="209.1" x2="1079.5" y2="236.4" stroke="#F2B544" stroke-width="3.4"/><line x1="1030.7" y1="214.3" x2="1026.5" y2="244.0" stroke="#F2B544" stroke-width="3.4"/><line x1="997.4" y1="199.1" x2="977.8" y2="221.8" stroke="#F2B544" stroke-width="3.4"/><line x1="977.6" y1="168.3" x2="948.8" y2="176.8" stroke="#F2B544" stroke-width="3.4"/><line x1="977.6" y1="131.7" x2="948.8" y2="123.2" stroke="#F2B544" stroke-width="3.4"/><line x1="997.4" y1="100.9" x2="977.8" y2="78.2" stroke="#F2B544" stroke-width="3.4"/><line x1="1030.7" y1="85.7" x2="1026.5" y2="56.0" stroke="#F2B544" stroke-width="3.4"/><line x1="1067.0" y1="90.9" x2="1079.5" y2="63.6" stroke="#F2B544" stroke-width="3.4"/><line x1="1094.7" y1="114.9" x2="1119.9" y2="98.6" stroke="#F2B544" stroke-width="3.4"/><path d="M980,478.32 C964.4,463.5 965.7,450.5 980,460.9 C994.3,450.5 995.6,463.5 980,478.32 Z" fill="#E98B6F"/><path d="M900,102 C903.24,116.76 903.24,116.76 918,120 C903.24,123.24 903.24,123.24 900,138 C896.76,123.24 896.76,123.24 882,120 C896.76,116.76 896.76,116.76 900,102 Z" fill="#E98B6F"/><circle cx="360" cy="430" r="9" fill="#9FB291"/><text x="332" y="470" font-family="Caveat, cursive" font-weight="700" font-size="62" fill="#D2694A" transform="rotate(-3 332 470)">fijne dagen, elke dag</text>
</svg>
